<svg width="803" height="286" viewBox="0 0 803 286" fill="none" xmlns="http://www.w3.org/2000/svg">
<path d="M333.64 137V88.232L332.68 80.552H377.224C382.408 80.552 386.376 81.192 389.128 82.472C391.944 83.752 393.896 85.672 394.984 88.232C396.072 90.728 396.616 93.864 396.616 97.64V119.816C396.616 123.656 396.072 126.856 394.984 129.416C393.96 131.912 392.04 133.8 389.224 135.08C386.472 136.36 382.472 137 377.224 137H333.64ZM346.312 127.784H376.456C381.384 127.784 383.88 125.512 383.944 120.968V96.488C383.944 94.632 383.4 93.064 382.312 91.784C381.224 90.44 379.272 89.768 376.456 89.768H346.312V127.784ZM419.816 137C416.616 137 414.152 136.584 412.424 135.752C410.696 134.92 409.448 133.864 408.68 132.584C407.976 131.304 407.528 129.96 407.336 128.552C407.208 127.144 407.144 125.864 407.144 124.712V106.28C407.144 105.32 407.208 104.168 407.336 102.824C407.528 101.416 407.976 100.04 408.68 98.696C409.448 97.352 410.696 96.232 412.424 95.336C414.216 94.44 416.68 93.992 419.816 93.992H440.456C444.68 93.992 447.976 94.408 450.344 95.24C452.776 96.008 454.472 97.288 455.432 99.08C456.456 100.872 456.968 103.272 456.968 106.28V120.488H440.168C434.408 120.488 429.704 120.36 426.056 120.104C422.472 119.848 420.072 119.688 418.856 119.624V124.904C418.792 127.464 420.328 128.744 423.464 128.744H428.36C431.816 128.744 435.176 128.712 438.44 128.648C441.768 128.52 444.808 128.392 447.56 128.264C450.312 128.072 452.52 127.912 454.184 127.784L458.024 134.024C458.024 136.008 451.72 137 439.112 137H419.816ZM418.856 112.232H445.256V106.088C445.256 104.808 445.096 103.912 444.776 103.4C444.52 102.888 443.688 102.568 442.28 102.44C440.872 102.312 438.472 102.248 435.08 102.248H423.464C420.392 102.248 418.856 103.528 418.856 106.088V112.232ZM478.483 137C474.195 137 471.155 136.776 469.363 136.328C467.571 135.88 466.675 135.432 466.675 134.984L469.555 127.784C471.411 127.976 474.803 128.2 479.731 128.456C484.723 128.648 490.867 128.744 498.163 128.744H502.963C504.563 128.744 505.555 128.328 505.939 127.496C506.387 126.6 506.611 125.416 506.611 123.944C506.611 122.472 506.355 121.288 505.843 120.392C505.395 119.496 504.435 119.048 502.963 119.048H479.347C474.867 119.048 471.635 118.216 469.651 116.552C467.667 114.824 466.675 112.264 466.675 108.872V105.032C466.675 104.136 466.771 103.08 466.963 101.864C467.155 100.648 467.635 99.432 468.403 98.216C469.171 97 470.419 96.008 472.147 95.24C473.875 94.408 476.275 93.992 479.347 93.992H505.843C509.683 93.992 512.403 94.216 514.003 94.664C515.603 95.112 516.403 95.56 516.403 96.008L515.443 103.208C513.587 103.016 510.163 102.824 505.171 102.632C500.179 102.376 494.067 102.248 486.835 102.248H482.035C480.435 102.248 479.411 102.696 478.963 103.592C478.579 104.424 478.387 105.416 478.387 106.568C478.387 107.784 478.579 108.808 478.963 109.64C479.411 110.408 480.435 110.792 482.035 110.792H505.651C510.003 110.792 513.203 111.688 515.251 113.48C517.299 115.272 518.323 117.544 518.323 120.296V125.96C518.323 127.112 518.227 128.328 518.035 129.608C517.907 130.888 517.459 132.104 516.691 133.256C515.923 134.344 514.675 135.24 512.947 135.944C511.219 136.648 508.787 137 505.651 137H478.483ZM545.558 137C540.694 137 537.366 135.976 535.574 133.928C533.782 131.88 532.886 128.808 532.886 124.712V102.248H525.014V93.992H529.046C530.262 93.992 531.126 93.8 531.638 93.416C532.214 93.032 532.63 92.264 532.886 91.112L534.806 80.84H544.598V93.992H564.566V102.248H544.598V124.808C544.598 126.408 544.982 127.464 545.75 127.976C546.518 128.488 547.67 128.744 549.206 128.744H562.742L563.702 136.04C562.358 136.232 560.31 136.456 557.558 136.712C554.806 136.904 551.798 137 548.534 137H545.558ZM579.076 87.944C576.708 87.944 574.98 87.464 573.892 86.504C572.804 85.544 572.26 83.944 572.26 81.704C572.26 79.4 572.772 77.8 573.796 76.904C574.884 75.944 576.644 75.464 579.076 75.464C581.508 75.464 583.268 75.944 584.356 76.904C585.444 77.8 585.988 79.4 585.988 81.704C585.988 83.88 585.444 85.48 584.356 86.504C583.268 87.464 581.508 87.944 579.076 87.944ZM573.22 137V93.992H584.932V137H573.22ZM597.479 137V93.992H605.351L609.191 95.912C611.879 95.4 615.111 94.952 618.887 94.568C622.663 94.184 626.983 93.992 631.847 93.992H636.647C639.847 93.992 642.311 94.44 644.039 95.336C645.767 96.232 646.983 97.352 647.687 98.696C648.455 100.04 648.903 101.416 649.031 102.824C649.223 104.168 649.319 105.32 649.319 106.28V137H637.607V106.088C637.607 103.528 636.071 102.248 632.999 102.248H612.071C610.855 102.248 610.055 102.376 609.671 102.632C609.351 102.824 609.191 103.4 609.191 104.36V137H597.479ZM664.417 155.816C661.345 155.816 658.529 155.464 655.969 154.76C653.409 154.056 651.681 153.416 650.785 152.84L653.665 144.2C654.753 144.648 656.289 145.16 658.273 145.736C660.321 146.376 662.625 146.696 665.185 146.696H666.241C669.185 146.696 671.777 145.8 674.017 144.008C676.321 142.28 678.081 139.944 679.297 137H674.497L655.681 93.992H669.121L680.161 120.488L682.657 127.4H683.617L686.113 120.488L697.345 93.992H710.401L708.865 99.848C707.649 102.344 706.241 105.224 704.641 108.488C703.105 111.688 701.505 115.016 699.841 118.472C698.177 121.928 696.545 125.256 694.945 128.456C693.409 131.656 692.033 134.504 690.817 137C688.961 140.84 686.913 144.168 684.673 146.984C682.497 149.8 679.969 151.976 677.089 153.512C674.273 155.048 670.913 155.816 667.009 155.816H664.417ZM344.45 219.8C340.783 219.8 337.8 219.767 335.5 219.7C333.2 219.633 331.433 219.533 330.2 219.4C328.967 219.267 328.117 219.1 327.65 218.9C327.217 218.7 327 218.483 327 218.25L328.5 214.5C329.033 214.667 329.967 214.867 331.3 215.1C332.667 215.367 334.4 215.5 336.5 215.5H345.05C346.283 215.5 347.15 215.317 347.65 214.95C348.183 214.583 348.45 213.933 348.45 213V210C347.017 210.267 345.317 210.5 343.35 210.7C341.417 210.9 339.183 211 336.65 211H334.15C332.483 211 331.2 210.783 330.3 210.35C329.4 209.917 328.75 209.367 328.35 208.7C327.983 208.033 327.75 207.333 327.65 206.6C327.583 205.867 327.55 205.2 327.55 204.6V195C327.55 194.5 327.583 193.9 327.65 193.2C327.75 192.467 327.983 191.75 328.35 191.05C328.75 190.35 329.4 189.767 330.3 189.3C331.233 188.833 332.517 188.6 334.15 188.6H336.7C340.2 188.6 342.917 188.667 344.85 188.8C346.817 188.933 348.25 189.083 349.15 189.25L350.45 188.6H354.55V213.4C354.55 214 354.45 214.667 354.25 215.4C354.083 216.133 353.733 216.833 353.2 217.5C352.667 218.167 351.9 218.717 350.9 219.15C349.9 219.583 348.583 219.8 346.95 219.8H344.45ZM336.05 206.7H346.9C347.667 206.7 348.117 206.633 348.25 206.5C348.383 206.367 348.45 205.933 348.45 205.2V193.25C347.317 193.183 345.883 193.117 344.15 193.05C342.417 192.95 340.567 192.9 338.6 192.9H336.05C334.45 192.9 333.65 193.567 333.65 194.9V204.7C333.617 206.033 334.417 206.7 336.05 206.7ZM377.018 211C374.485 211 372.652 210.417 371.518 209.25C370.385 208.05 369.818 206.417 369.818 204.35C369.818 202.183 370.402 200.517 371.568 199.35C372.768 198.183 374.585 197.6 377.018 197.6H379.568C382.068 197.6 384.318 197.667 386.318 197.8C388.318 197.933 389.968 198.067 391.268 198.2V194.9C391.268 194.6 391.235 194.3 391.168 194C391.102 193.667 390.902 193.4 390.568 193.2C390.235 193 389.668 192.9 388.868 192.9H386.368C382.735 192.9 379.702 192.967 377.268 193.1C374.835 193.2 373.185 193.3 372.318 193.4L371.768 189.6C371.768 189.133 373.035 188.85 375.568 188.75C378.102 188.65 382.335 188.6 388.268 188.6H390.768C392.435 188.6 393.718 188.833 394.618 189.3C395.518 189.767 396.152 190.35 396.518 191.05C396.918 191.75 397.152 192.467 397.218 193.2C397.318 193.9 397.368 194.5 397.368 195V211H393.268L391.318 210C389.918 210.233 388.235 210.467 386.268 210.7C384.302 210.9 382.052 211 379.518 211H377.018ZM378.318 206.7H389.768C390.502 206.7 390.935 206.633 391.068 206.5C391.202 206.367 391.268 205.95 391.268 205.25V201.4H378.318C377.418 201.4 376.785 201.617 376.418 202.05C376.085 202.483 375.918 203.167 375.918 204.1C375.918 205.033 376.118 205.7 376.518 206.1C376.918 206.5 377.518 206.7 378.318 206.7ZM413.137 211V188.6H417.237L418.487 189.2C419.453 189.033 420.637 188.9 422.037 188.8C423.437 188.667 425.103 188.6 427.037 188.6H429.537C430.503 188.6 431.437 188.733 432.337 189C433.237 189.233 433.903 189.583 434.337 190.05C435.203 189.617 436.403 189.267 437.937 189C439.47 188.733 441.47 188.6 443.937 188.6H446.437C448.103 188.6 449.387 188.833 450.287 189.3C451.187 189.767 451.82 190.35 452.187 191.05C452.587 191.75 452.82 192.467 452.887 193.2C452.987 193.9 453.037 194.5 453.037 195V211H446.937V194.9C446.937 193.567 446.137 192.9 444.537 192.9H437.537C437.003 192.9 436.637 192.967 436.437 193.1C436.237 193.233 436.137 193.533 436.137 194V211H430.037V194.9C430.037 193.567 429.237 192.9 427.637 192.9H420.737C420.103 192.9 419.687 192.967 419.487 193.1C419.32 193.2 419.237 193.5 419.237 194V211H413.137ZM474.891 211C473.224 211 471.941 210.783 471.041 210.35C470.141 209.917 469.491 209.367 469.091 208.7C468.724 208.033 468.491 207.333 468.391 206.6C468.324 205.867 468.291 205.2 468.291 204.6V195C468.291 194.5 468.324 193.9 468.391 193.2C468.491 192.467 468.724 191.75 469.091 191.05C469.491 190.35 470.141 189.767 471.041 189.3C471.974 188.833 473.258 188.6 474.891 188.6H485.641C487.841 188.6 489.558 188.817 490.791 189.25C492.058 189.65 492.941 190.317 493.441 191.25C493.974 192.183 494.241 193.433 494.241 195V202.4H485.491C482.491 202.4 480.041 202.333 478.141 202.2C476.274 202.067 475.024 201.983 474.391 201.95V204.7C474.358 206.033 475.158 206.7 476.791 206.7H479.341C481.141 206.7 482.891 206.683 484.591 206.65C486.324 206.583 487.908 206.517 489.341 206.45C490.774 206.35 491.924 206.267 492.791 206.2L494.791 209.45C494.791 210.483 491.508 211 484.941 211H474.891ZM474.391 198.1H488.141V194.9C488.141 194.233 488.058 193.767 487.891 193.5C487.758 193.233 487.324 193.067 486.591 193C485.858 192.933 484.608 192.9 482.841 192.9H476.791C475.191 192.9 474.391 193.567 474.391 194.9V198.1ZM509.797 211V188.6H513.897L515.797 189.6C516.664 189.133 517.597 188.767 518.597 188.5C519.597 188.233 520.864 188.1 522.397 188.1C524.83 188.1 526.797 188.367 528.297 188.9C529.83 189.433 530.847 189.833 531.347 190.1L529.597 194.45C529.197 194.25 528.53 194 527.597 193.7C526.697 193.367 525.63 193.067 524.397 192.8C523.164 192.533 521.814 192.4 520.347 192.4H519.797C518.197 192.4 517.147 192.717 516.647 193.35C516.18 193.983 515.93 195.033 515.897 196.5V211H509.797ZM550.496 211C548.262 211 546.679 210.883 545.746 210.65C544.812 210.417 544.346 210.183 544.346 209.95L545.846 206.2C546.812 206.3 548.579 206.417 551.146 206.55C553.746 206.65 556.946 206.7 560.746 206.7H563.246C564.079 206.7 564.596 206.483 564.796 206.05C565.029 205.583 565.146 204.967 565.146 204.2C565.146 203.433 565.012 202.817 564.746 202.35C564.512 201.883 564.012 201.65 563.246 201.65H550.946C548.612 201.65 546.929 201.217 545.896 200.35C544.862 199.45 544.346 198.117 544.346 196.35V194.35C544.346 193.883 544.396 193.333 544.496 192.7C544.596 192.067 544.846 191.433 545.246 190.8C545.646 190.167 546.296 189.65 547.196 189.25C548.096 188.817 549.346 188.6 550.946 188.6H564.746C566.746 188.6 568.162 188.717 568.996 188.95C569.829 189.183 570.246 189.417 570.246 189.65L569.746 193.4C568.779 193.3 566.996 193.2 564.396 193.1C561.796 192.967 558.612 192.9 554.846 192.9H552.346C551.512 192.9 550.979 193.133 550.746 193.6C550.546 194.033 550.446 194.55 550.446 195.15C550.446 195.783 550.546 196.317 550.746 196.75C550.979 197.15 551.512 197.35 552.346 197.35H564.646C566.912 197.35 568.579 197.817 569.646 198.75C570.712 199.683 571.246 200.867 571.246 202.3V205.25C571.246 205.85 571.196 206.483 571.096 207.15C571.029 207.817 570.796 208.45 570.396 209.05C569.996 209.617 569.346 210.083 568.446 210.45C567.546 210.817 566.279 211 564.646 211H550.496ZM613.367 211C611.133 211 609.55 210.883 608.617 210.65C607.683 210.417 607.217 210.183 607.217 209.95L608.717 206.2C609.683 206.3 611.45 206.417 614.017 206.55C616.617 206.65 619.817 206.7 623.617 206.7H626.117C626.95 206.7 627.467 206.483 627.667 206.05C627.9 205.583 628.017 204.967 628.017 204.2C628.017 203.433 627.883 202.817 627.617 202.35C627.383 201.883 626.883 201.65 626.117 201.65H613.817C611.483 201.65 609.8 201.217 608.767 200.35C607.733 199.45 607.217 198.117 607.217 196.35V194.35C607.217 193.883 607.267 193.333 607.367 192.7C607.467 192.067 607.717 191.433 608.117 190.8C608.517 190.167 609.167 189.65 610.067 189.25C610.967 188.817 612.217 188.6 613.817 188.6H627.617C629.617 188.6 631.033 188.717 631.867 188.95C632.7 189.183 633.117 189.417 633.117 189.65L632.617 193.4C631.65 193.3 629.867 193.2 627.267 193.1C624.667 192.967 621.483 192.9 617.717 192.9H615.217C614.383 192.9 613.85 193.133 613.617 193.6C613.417 194.033 613.317 194.55 613.317 195.15C613.317 195.783 613.417 196.317 613.617 196.75C613.85 197.15 614.383 197.35 615.217 197.35H627.517C629.783 197.35 631.45 197.817 632.517 198.75C633.583 199.683 634.117 200.867 634.117 202.3V205.25C634.117 205.85 634.067 206.483 633.967 207.15C633.9 207.817 633.667 208.45 633.267 209.05C632.867 209.617 632.217 210.083 631.317 210.45C630.417 210.817 629.15 211 627.517 211H613.367ZM649.602 220.3V188.6H653.702L654.952 189.25C656.452 189.083 658.235 188.933 660.302 188.8C662.402 188.667 664.785 188.6 667.452 188.6H670.002C671.668 188.6 672.952 188.817 673.852 189.25C674.752 189.683 675.385 190.233 675.752 190.9C676.152 191.567 676.385 192.267 676.452 193C676.552 193.733 676.602 194.4 676.602 195V204.6C676.602 205.1 676.552 205.717 676.452 206.45C676.385 207.15 676.152 207.85 675.752 208.55C675.385 209.25 674.752 209.833 673.852 210.3C672.952 210.767 671.668 211 670.002 211H667.452C664.918 211 662.668 210.933 660.702 210.8C658.735 210.667 657.068 210.533 655.702 210.4V220.3H649.602ZM657.252 206.7H668.102C668.735 206.7 669.285 206.533 669.752 206.2C670.252 205.867 670.502 205.367 670.502 204.7V194.9C670.535 194.167 670.352 193.65 669.952 193.35C669.585 193.05 668.968 192.9 668.102 192.9H665.602C663.468 192.9 661.568 192.95 659.902 193.05C658.268 193.117 656.868 193.2 655.702 193.3V205.15C655.702 205.883 655.768 206.333 655.902 206.5C656.068 206.633 656.518 206.7 657.252 206.7ZM698.571 211C696.038 211 694.204 210.417 693.071 209.25C691.938 208.05 691.371 206.417 691.371 204.35C691.371 202.183 691.954 200.517 693.121 199.35C694.321 198.183 696.138 197.6 698.571 197.6H701.121C703.621 197.6 705.871 197.667 707.871 197.8C709.871 197.933 711.521 198.067 712.821 198.2V194.9C712.821 194.6 712.788 194.3 712.721 194C712.654 193.667 712.454 193.4 712.121 193.2C711.788 193 711.221 192.9 710.421 192.9H707.921C704.288 192.9 701.254 192.967 698.821 193.1C696.388 193.2 694.738 193.3 693.871 193.4L693.321 189.6C693.321 189.133 694.588 188.85 697.121 188.75C699.654 188.65 703.888 188.6 709.821 188.6H712.321C713.988 188.6 715.271 188.833 716.171 189.3C717.071 189.767 717.704 190.35 718.071 191.05C718.471 191.75 718.704 192.467 718.771 193.2C718.871 193.9 718.921 194.5 718.921 195V211H714.821L712.871 210C711.471 210.233 709.788 210.467 707.821 210.7C705.854 210.9 703.604 211 701.071 211H698.571ZM699.871 206.7H711.321C712.054 206.7 712.488 206.633 712.621 206.5C712.754 206.367 712.821 205.95 712.821 205.25V201.4H699.871C698.971 201.4 698.338 201.617 697.971 202.05C697.638 202.483 697.471 203.167 697.471 204.1C697.471 205.033 697.671 205.7 698.071 206.1C698.471 206.5 699.071 206.7 699.871 206.7ZM740.789 211C739.123 211 737.839 210.783 736.939 210.35C736.039 209.917 735.389 209.367 734.989 208.7C734.623 208.033 734.389 207.333 734.289 206.6C734.223 205.867 734.189 205.2 734.189 204.6V195C734.189 194.5 734.223 193.9 734.289 193.2C734.389 192.467 734.623 191.75 734.989 191.05C735.389 190.35 736.039 189.767 736.939 189.3C737.873 188.833 739.156 188.6 740.789 188.6H747.739C751.906 188.6 754.856 188.717 756.589 188.95C758.356 189.15 759.239 189.367 759.239 189.6L758.239 193.4C757.306 193.333 756.123 193.267 754.689 193.2C753.256 193.1 751.706 193.033 750.039 193C748.406 192.933 746.806 192.9 745.239 192.9H742.689C741.089 192.9 740.289 193.567 740.289 194.9V204.7C740.256 206.033 741.056 206.7 742.689 206.7H745.239C747.039 206.7 748.789 206.683 750.489 206.65C752.223 206.583 753.806 206.517 755.239 206.45C756.673 206.35 757.823 206.267 758.689 206.2L760.689 209.45C760.689 210.483 757.406 211 750.839 211H740.789ZM780.282 211C778.615 211 777.332 210.783 776.432 210.35C775.532 209.917 774.882 209.367 774.482 208.7C774.115 208.033 773.882 207.333 773.782 206.6C773.715 205.867 773.682 205.2 773.682 204.6V195C773.682 194.5 773.715 193.9 773.782 193.2C773.882 192.467 774.115 191.75 774.482 191.05C774.882 190.35 775.532 189.767 776.432 189.3C777.365 188.833 778.648 188.6 780.282 188.6H791.032C793.232 188.6 794.948 188.817 796.182 189.25C797.448 189.65 798.332 190.317 798.832 191.25C799.365 192.183 799.632 193.433 799.632 195V202.4H790.882C787.882 202.4 785.432 202.333 783.532 202.2C781.665 202.067 780.415 201.983 779.782 201.95V204.7C779.748 206.033 780.548 206.7 782.182 206.7H784.732C786.532 206.7 788.282 206.683 789.982 206.65C791.715 206.583 793.298 206.517 794.732 206.45C796.165 206.35 797.315 206.267 798.182 206.2L800.182 209.45C800.182 210.483 796.898 211 790.332 211H780.282ZM779.782 198.1H793.532V194.9C793.532 194.233 793.448 193.767 793.282 193.5C793.148 193.233 792.715 193.067 791.982 193C791.248 192.933 789.998 192.9 788.232 192.9H782.182C780.582 192.9 779.782 193.567 779.782 194.9V198.1Z" fill="white"/>
<mask id="path-2-inside-1_138_2" fill="white">
<path d="M242.959 64.1522C242.959 47.138 231.796 30.8206 211.925 18.7897C192.053 6.75887 165.102 1.28454e-06 137 0C108.898 -1.28454e-06 81.9468 6.75887 62.0755 18.7897C42.2043 30.8206 31.0408 47.1379 31.0408 64.1522L39.8453 64.1522C39.8453 48.5517 50.0813 33.5902 68.3013 22.5591C86.5214 11.5279 111.233 5.33065 137 5.33065C162.767 5.33065 187.479 11.5279 205.699 22.5591C223.919 33.5902 234.155 48.5517 234.155 64.1522H242.959Z"/>
</mask>
<path d="M242.959 64.1522C242.959 47.138 231.796 30.8206 211.925 18.7897C192.053 6.75887 165.102 1.28454e-06 137 0C108.898 -1.28454e-06 81.9468 6.75887 62.0755 18.7897C42.2043 30.8206 31.0408 47.1379 31.0408 64.1522L39.8453 64.1522C39.8453 48.5517 50.0813 33.5902 68.3013 22.5591C86.5214 11.5279 111.233 5.33065 137 5.33065C162.767 5.33065 187.479 11.5279 205.699 22.5591C223.919 33.5902 234.155 48.5517 234.155 64.1522H242.959Z" stroke="white" stroke-width="24" mask="url(#path-2-inside-1_138_2)"/>
<path d="M202.99 109L219 70H137H55L71.4 109H120.99L137 78.6978L153.01 109H202.99Z" fill="white" stroke="white" stroke-width="9"/>
<path d="M202.99 109L219 70H137H55L71.4 109H120.99L137 78.6978L153.01 109H202.99Z" fill="black" stroke="white" stroke-width="9"/>
<path d="M53.0173 114.174L90.1367 170.696H132.824L137 165.075" stroke="white" stroke-width="9"/>
<path d="M220.983 114.174L183.863 170.696H141.176L137 165.075" stroke="white" stroke-width="9"/>
<path d="M72.6395 172.957L2 208" stroke="white" stroke-width="8"/>
<path d="M122.872 251.696L54.5872 190.674" stroke="white" stroke-width="8"/>
<path d="M152.698 251.696L220.983 190.674" stroke="white" stroke-width="8"/>
<path d="M201.36 172.957L272 208" stroke="white" stroke-width="8"/>
<path d="M161.331 208C161.331 212.572 158.545 216.078 154.205 220.19C149.178 224.952 143.453 229.196 137 229.196C130.547 229.196 124.822 224.952 119.795 220.19C115.455 216.078 112.669 212.572 112.669 208L137 208H161.331Z" fill="white"/>
<path d="M136.608 228.913C136.608 228.913 144.297 228.913 150.673 239.356C157.049 249.799 166.826 286 166.826 286H106.39C106.39 286 115.741 249.798 122.001 239.356C128.261 228.913 136.608 228.913 136.608 228.913Z" fill="white"/>
</svg>
